<?xml version="1.0" encoding="UTF-8"?>
<svg version="1.1" xmlns="http://www.w3.org/2000/svg" width="64" height="64">
<path d="M0 0 C1.27423828 -0.00193359 1.27423828 -0.00193359 2.57421875 -0.00390625 C3.91419922 0.00189453 3.91419922 0.00189453 5.28125 0.0078125 C6.17457031 0.00394531 7.06789063 0.00007813 7.98828125 -0.00390625 C8.83777344 -0.00261719 9.68726562 -0.00132813 10.5625 0 C11.34689453 0.00112793 12.13128906 0.00225586 12.93945312 0.00341797 C14.78125 0.1328125 14.78125 0.1328125 15.78125 1.1328125 C15.85383946 3.31920703 15.86498783 5.50781639 15.84375 7.6953125 C15.83472656 8.89285156 15.82570313 10.09039062 15.81640625 11.32421875 C15.80480469 12.25105469 15.79320313 13.17789063 15.78125 14.1328125 C18.30557413 13.59124932 18.30557413 13.59124932 20.78125 12.1328125 C21.82248065 9.27699601 21.82248065 9.27699601 22.09375 6.0078125 C22.23425781 4.91210938 22.37476563 3.81640625 22.51953125 2.6875 C22.60589844 1.84445313 22.69226562 1.00140625 22.78125 0.1328125 C25.42125 0.1328125 28.06125 0.1328125 30.78125 0.1328125 C31.44125 3.4328125 32.10125 6.7328125 32.78125 10.1328125 C35.25625 10.6278125 35.25625 10.6278125 37.78125 11.1328125 C40.0100411 12.97732927 40.66218881 14.42106212 41.13671875 17.2578125 C41.38407769 21.32252153 41.33798573 23.41949484 38.78125 26.6953125 C34.95502021 28.52871428 31.94434577 29.11483307 27.78125 28.1328125 C24.78125 25.8828125 24.78125 25.8828125 22.78125 23.1328125 C22.78125 21.8128125 22.78125 20.4928125 22.78125 19.1328125 C18.82125 19.1328125 14.86125 19.1328125 10.78125 19.1328125 C10.69875 20.0609375 10.61625 20.9890625 10.53125 21.9453125 C9.78125 25.1328125 9.78125 25.1328125 8.21875 27.0078125 C4.72453627 28.62052653 1.50750243 28.92971401 -2.21875 28.1328125 C-5.21875 25.8828125 -5.21875 25.8828125 -7.21875 23.1328125 C-7.21875 21.8128125 -7.21875 20.4928125 -7.21875 19.1328125 C-8.20875 19.1328125 -9.19875 19.1328125 -10.21875 19.1328125 C-10.72352602 13.83266432 -9.42692314 11.31315932 -6.21875 7.1328125 C-5.88875 6.8028125 -5.55875 6.4728125 -5.21875 6.1328125 C-5.21875 5.3078125 -5.21875 4.4828125 -5.21875 3.6328125 C-5.21875 -0.51737822 -3.67807684 0.00528894 0 0 Z M-0.21875 16.1328125 C-0.54875 17.7828125 -0.87875 19.4328125 -1.21875 21.1328125 C1.25625 21.6278125 1.25625 21.6278125 3.78125 22.1328125 C4.11125 20.4828125 4.44125 18.8328125 4.78125 17.1328125 C3.13125 16.8028125 1.48125 16.4728125 -0.21875 16.1328125 Z M29.78125 16.1328125 C29.45125 17.7828125 29.12125 19.4328125 28.78125 21.1328125 C31.25625 21.6278125 31.25625 21.6278125 33.78125 22.1328125 C34.11125 20.4828125 34.44125 18.8328125 34.78125 17.1328125 C33.13125 16.8028125 31.48125 16.4728125 29.78125 16.1328125 Z " fill="#FFFFFF" transform="translate(20.21875,28.8671875)"/>
<path d="M0 0 C9.24 0 18.48 0 28 0 C28 5.94 28 11.88 28 18 C18.76 18 9.52 18 0 18 C0 12.06 0 6.12 0 0 Z M13 4 C13 4.66 13 5.32 13 6 C11.7934375 6.4021875 11.7934375 6.4021875 10.5625 6.8125 C9.716875 7.204375 8.87125 7.59625 8 8 C7.67 8.99 7.34 9.98 7 11 C11.62 11 16.24 11 21 11 C19.53489979 6.91214206 19.53489979 6.91214206 16.875 6.25 C15.946875 6.12625 15.946875 6.12625 15 6 C15 5.34 15 4.68 15 4 C14.34 4 13.68 4 13 4 Z M4 13 C4 13.66 4 14.32 4 15 C10.6 15 17.2 15 24 15 C24 14.34 24 13.68 24 13 C17.4 13 10.8 13 4 13 Z " fill="#FFFFFF" transform="translate(3,9)"/>
<path d="M0 0 C3.63 0 7.26 0 11 0 C11 3.3 11 6.6 11 10 C7.37 10 3.74 10 0 10 C0 6.7 0 3.4 0 0 Z " fill="#FFFFFF" transform="translate(43,17)"/>
</svg>
